HIERARCHY
ROOT Hips
{
	OFFSET 0.000000 0.000000 0.000000
	CHANNELS 6 Xposition Yposition Zposition Yrotation Xrotation Zrotation
	JOINT Chest
	{
		OFFSET 0.000000 -0.009281 11.569106
		CHANNELS 3 Yrotation Xrotation Zrotation
		JOINT Chest2
		{
			OFFSET -0.000000 0.016865 9.269641
			CHANNELS 3 Yrotation Xrotation Zrotation
			JOINT Chest3
			{
				OFFSET -0.000000 0.000001 8.374491
				CHANNELS 3 Yrotation Xrotation Zrotation
				JOINT Chest4
				{
					OFFSET -0.000000 0.000001 8.374493
					CHANNELS 3 Yrotation Xrotation Zrotation
					JOINT Neck
					{
						OFFSET -0.000000 0.000002 12.152554
						CHANNELS 3 Yrotation Xrotation Zrotation
						JOINT Head
						{
							OFFSET -0.000000 0.040101 7.802319
							CHANNELS 3 Yrotation Xrotation Zrotation
							End Site
							{
								OFFSET -0.000000 0.020947 14.853096
							}
						}
					}
					JOINT RightCollar
					{
						OFFSET 2.894404 0.000001 6.791374
						CHANNELS 3 Yrotation Xrotation Zrotation
						JOINT RightShoulder
						{
							OFFSET 13.574684 0.000001 0.000000
							CHANNELS 3 Yrotation Xrotation Zrotation
							JOINT RightElbow
							{
								OFFSET 23.923903 0.000002 0.000000
								CHANNELS 3 Yrotation Xrotation Zrotation
								JOINT RightWrist
								{
									OFFSET 19.846718 0.012767 0.000000
									CHANNELS 3 Yrotation Xrotation Zrotation
									End Site
									{
										OFFSET 14.973145 0.000001 0.000000
									}
								}
							}
						}
					}
					JOINT LeftCollar
					{
						OFFSET -2.894404 0.000001 6.791374
						CHANNELS 3 Yrotation Xrotation Zrotation
						JOINT LeftShoulder
						{
							OFFSET -13.574684 -0.000001 0.000000
							CHANNELS 3 Yrotation Xrotation Zrotation
							JOINT LeftElbow
							{
								OFFSET -23.923903 -0.000002 0.000000
								CHANNELS 3 Yrotation Xrotation Zrotation
								JOINT LeftWrist
								{
									OFFSET -19.846718 0.012763 0.000000
									CHANNELS 3 Yrotation Xrotation Zrotation
									End Site
									{
										OFFSET -14.973145 -0.000001 0.000000
									}
								}
							}
						}
					}
				}
			}
		}
	}
	JOINT RightHip
	{
		OFFSET 9.469263 0.004643 0.045487
		CHANNELS 3 Yrotation Xrotation Zrotation
		JOINT RightKnee
		{
			OFFSET 0.000000 0.002661 -40.478676
			CHANNELS 3 Yrotation Xrotation Zrotation
			JOINT RightAnkle
			{
				OFFSET 0.000000 0.049106 -35.224068
				CHANNELS 3 Yrotation Xrotation Zrotation
				JOINT RightToe
				{
					OFFSET -0.000001 12.539529 -6.151390
					CHANNELS 3 Yrotation Xrotation Zrotation
					End Site
					{
						OFFSET -0.000001 5.044994 -1.291870
					}
				}
			}
		}
	}
	JOINT LeftHip
	{
		OFFSET -9.469263 0.004641 0.045487
		CHANNELS 3 Yrotation Xrotation Zrotation
		JOINT LeftKnee
		{
			OFFSET 0.000000 0.002661 -40.478676
			CHANNELS 3 Yrotation Xrotation Zrotation
			JOINT LeftAnkle
			{
				OFFSET 0.000000 0.049106 -35.224068
				CHANNELS 3 Yrotation Xrotation Zrotation
				JOINT LeftToe
				{
					OFFSET -0.000001 12.539529 -6.151390
					CHANNELS 3 Yrotation Xrotation Zrotation
					End Site
					{
						OFFSET -0.000001 5.044994 -1.291870
					}
				}
			}
		}
	}
}
MOTION
Frames: 6
Frame Time: 0.016667
13.352449 5.864012 82.949417 -5.241706 -2.197919 -108.725786 -0.108093 -3.990772 -0.208049 -0.046068 -1.772386 -0.096703 -0.046068 -1.772386 -0.096705 -0.034829 -1.329282 -0.072657 0.292608 -17.115607 -1.577027 -0.006433 4.391304 -2.815859 -1.490256 29.721886 -2.778952 43.611588 34.362388 66.392321 36.143715 46.419123 47.380865 -16.722600 25.755875 -10.393403 1.702740 17.989998 -2.387398 -50.034250 44.944783 -72.183468 -31.085793 40.348881 -42.428490 33.214264 32.524685 14.759813 -0.352469 -9.465395 -2.673414 1.814334 -2.177616 -6.103872 -0.993558 5.507992 1.057314 0.000426 0.019985 0.003661 -0.684771 -10.321791 2.663552 0.748012 -0.645844 1.077886 -0.798109 5.114651 0.787209 0.038160 -0.009812 -0.000461 
13.332025 5.881411 82.952545 -5.239633 -2.204168 -108.717883 -0.113127 -4.021314 -0.204987 -0.048062 -1.785855 -0.095513 -0.048062 -1.785855 -0.095514 -0.036322 -1.339384 -0.071771 0.301275 -17.145626 -1.571549 0.012093 4.335825 -2.802367 -1.588229 29.761245 -2.918232 43.553306 34.368853 66.286412 35.896059 46.334880 47.214724 -16.011242 24.902347 -10.342679 1.747777 18.026954 -2.333770 -49.783524 44.965290 -71.935662 -30.848898 40.317329 -42.194170 31.542196 31.980923 14.446262 -0.355790 -9.442139 -2.653742 1.820943 -2.186693 -6.130636 -0.989203 5.487884 1.066754 -0.000560 0.020524 0.003480 -0.676901 -10.303245 2.668434 0.735176 -0.645746 1.067283 -0.795216 5.097753 0.780794 0.039455 -0.012803 -0.000728 
13.311373 5.900397 82.956459 -5.243411 -2.211278 -108.705657 -0.121832 -4.054392 -0.196256 -0.051524 -1.800570 -0.091936 -0.051524 -1.800570 -0.091938 -0.038911 -1.350420 -0.069096 0.318902 -17.183583 -1.572066 0.045266 4.265695 -2.796771 -1.717509 29.751952 -3.097854 43.536247 34.385655 66.203138 35.481935 46.173110 46.958637 -15.317051 23.797725 -10.246482 1.798689 18.103061 -2.272427 -49.408458 44.918695 -71.585990 -30.452334 40.285108 -41.851667 29.480801 31.236330 13.994282 -0.357087 -9.419929 -2.638926 1.820398 -2.205364 -6.153907 -0.981169 5.471396 1.061368 -0.000505 0.021513 0.003106 -0.671999 -10.287341 2.665698 0.724535 -0.649064 1.076857 -0.794080 5.079513 0.763555 0.041078 -0.014110 -0.001085 
13.289100 5.919866 82.960876 -5.250400 -2.218142 -108.692707 -0.130222 -4.083443 -0.186565 -0.055304 -1.813685 -0.088097 -0.055304 -1.813685 -0.088096 -0.041737 -1.360256 -0.066230 0.337719 -17.234306 -1.572675 0.080838 4.171883 -2.790815 -1.866651 29.735157 -3.302499 43.487954 34.356961 66.075906 34.699772 45.843598 46.490482 -14.562351 22.410855 -10.052495 1.853871 18.201196 -2.188275 -48.909861 44.780359 -71.131953 -29.653683 40.147924 -41.303202 27.092577 30.098321 13.352488 -0.358880 -9.394930 -2.619734 1.818190 -2.232122 -6.173429 -0.973221 5.456400 1.050063 -0.000069 0.023047 0.003727 -0.669153 -10.273751 2.667298 0.717042 -0.651708 1.083973 -0.795500 5.060873 0.740310 0.042503 -0.015854 -0.001535 
13.266224 5.940948 82.965271 -5.263874 -2.221799 -108.676253 -0.140831 -4.108389 -0.177636 -0.056912 -1.824035 -0.085713 -0.056912 -1.824035 -0.085713 -0.042936 -1.368019 -0.064451 0.353546 -17.298050 -1.571714 0.111661 4.053859 -2.782886 -2.007460 29.728771 -3.471971 43.332236 34.296828 65.837232 33.527746 45.302828 45.809570 -13.623740 20.594366 -9.751184 1.908427 18.284683 -2.068717 -48.372568 44.577021 -70.630351 -28.479350 39.741917 -40.623250 24.561292 28.259933 12.439981 -0.368681 -9.379857 -2.605613 1.817346 -2.255262 -6.187964 -0.962762 5.443805 1.043513 0.000033 0.022620 0.005300 -0.670889 -10.259191 2.669864 0.708094 -0.658637 1.081975 -0.793101 5.053514 0.732682 0.042494 -0.030151 -0.002177 
13.241216 5.961759 82.969307 -5.268749 -2.230459 -108.656043 -0.147979 -4.132545 -0.166579 -0.059384 -1.834655 -0.081133 -0.059384 -1.834655 -0.081133 -0.044778 -1.375984 -0.061019 0.372761 -17.365947 -1.572556 0.148174 3.928153 -2.777097 -2.117983 29.727801 -3.621647 43.124083 34.259085 65.554571 32.192027 44.597495 45.020048 -12.450540 18.342628 -9.366187 1.944010 18.347509 -1.982938 -47.827638 44.424513 -70.121802 -27.431559 39.187862 -40.062707 22.271915 26.617920 11.674825 -0.368875 -9.354668 -2.602033 1.819186 -2.278658 -6.202635 -0.955355 5.427484 1.036042 -0.000819 0.023048 0.005308 -0.661821 -10.240066 2.670561 0.696304 -0.663303 1.068075 -0.791692 5.033532 0.727479 0.044014 -0.032018 -0.002277 
